<svg width="74" height="12" viewBox="0 0 74 12" fill="none" xmlns="http://www.w3.org/2000/svg">
<g clip-path="url(#clip0_6405_13660)">
<path d="M30.3154 1.50121H34.0557V11.0289H35.8276V1.50121H39.7267V0.155029H30.3154V1.50121Z" fill="#014AB8"/>
<path d="M68.6442 0.155029V4.88391H63.3594V0.155029H61.5869V11.0289H63.3594V6.23056H68.6442V11.0289H70.3989V0.155029H68.6442Z" fill="#014AB8"/>
<path d="M40.6074 4.76853V6.41496C40.6074 8.9631 42.7038 11.0289 45.2895 11.0289H49.2865V9.60475H45.3289C43.8021 9.60475 42.5641 8.38482 42.5641 6.88024V6.31472H49.2865V4.86972H42.5641V4.3042C42.5641 2.79963 43.8021 1.5797 45.3289 1.5797H49.2865V0.155029H45.2895C42.7038 0.155029 40.6074 2.22087 40.6074 4.76901V4.76853Z" fill="#014AB8"/>
<path d="M50.9785 4.76853V6.41496C50.9785 8.9631 53.0749 11.0289 55.6606 11.0289H59.6576V9.60475H55.7C54.1732 9.60475 52.9352 8.38482 52.9352 6.88024V4.30373C52.9352 2.79915 54.1732 1.57922 55.7 1.57922H59.6576V0.155029H55.6606C53.0749 0.155029 50.9785 2.22087 50.9785 4.76901V4.76853Z" fill="#014AB8"/>
<path d="M13.0765 0.357449L21.0876 7.53848C21.1375 7.58293 21.1658 7.64629 21.1658 7.71249V10.8815C21.1658 11.0857 20.9201 11.1926 20.7666 11.0555L12.7559 3.87396C12.706 3.82952 12.6777 3.76616 12.6777 3.69996V0.531455C12.6777 0.327187 12.9234 0.220325 13.0769 0.357449H13.0765Z" fill="#014AB8"/>
<path d="M12.6777 6.0495V11.1775C12.6777 11.307 12.7843 11.4125 12.9162 11.4125H18.4898L12.6777 6.0495Z" fill="#014AB8"/>
<path d="M11.2425 3.57278V0.231692C11.2425 0.103552 11.1374 0 11.0074 0H6.80795C6.71966 0 6.63857 0.0487026 6.59874 0.126248L0.952659 11.0418C0.873009 11.1959 0.986727 11.3784 1.16186 11.3784H4.49328C4.58253 11.3784 4.6641 11.3288 4.70344 11.2503L5.95002 8.78443C5.98985 8.70594 6.07142 8.65629 6.16019 8.65629H11.0069C11.1369 8.65629 11.242 8.55274 11.242 8.4246V6.28121C11.242 6.15355 11.1369 6.05 11.0074 6.04952L7.71482 6.04196C7.54064 6.04196 7.4274 5.86086 7.50513 5.70719L8.40192 3.93309C8.44175 3.8546 8.52332 3.80495 8.61209 3.80495H11.0069C11.1369 3.80495 11.242 3.7014 11.242 3.57326L11.2425 3.57278Z" fill="#014AB8"/>
<path d="M21.1656 5.36296V0.234529C21.1656 0.104971 21.0591 0 20.9276 0H15.3535L21.1656 5.36296Z" fill="#014AB8"/>
<path d="M25.4663 0.107814L22.5802 5.34121C22.5663 5.36675 22.5586 5.39512 22.5586 5.42396V11.2219C22.5586 11.3179 22.6373 11.3955 22.7347 11.3955H26.2432C26.3406 11.3955 26.4193 11.3179 26.4193 11.2219V5.42396C26.4193 5.39512 26.4265 5.36675 26.4408 5.34121L29.2368 0.273308C29.3006 0.157935 29.2157 0.0170288 29.0823 0.0170288H25.6213C25.557 0.0170288 25.4975 0.052019 25.4668 0.107814H25.4663Z" fill="#014AB8"/>
</g>
<defs>
<clipPath id="clip0_6405_13660">
<rect width="69.4722" height="11.4125" fill="white" transform="translate(0.926758)"/>
</clipPath>
</defs>
</svg>
